<?xml version="1.0" standalone="no"?><!DOCTYPE svg PUBLIC "-//W3C//DTD SVG 1.1//EN" "http://www.w3.org/Graphics/SVG/1.1/DTD/svg11.dtd"><svg t="1784619749002" class="icon" viewBox="0 0 1024 1024" version="1.1" xmlns="http://www.w3.org/2000/svg" p-id="9681" xmlns:xlink="http://www.w3.org/1999/xlink" width="200" height="200"><path d="M411.486 223.907c-71.195-15.039-141.131 28.772-159.236 98.484l-0.149-0.031-38.391 181.755 18.467 3.901 36.804-174.237 0.017 0.004c0.088-0.444 0.17-0.887 0.264-1.331 13.323-63.072 75.253-103.401 138.325-90.079s103.401 75.253 90.079 138.325c-0.094 0.444-0.199 0.882-0.297 1.323l0.017 0.004-36.806 174.237 17.159 10.092 38.393-181.755c15.476-73.271-31.375-145.215-104.646-160.692z" fill="#F4DD50" p-id="9682"></path><path d="M477.739 571.354a4.99 4.99 0 0 1-2.535-0.69l-17.159-10.092a4.997 4.997 0 0 1-2.357-5.343l36.719-173.826c0.02-0.154 0.046-0.308 0.08-0.462l0.126-0.555c0.055-0.239 0.11-0.478 0.161-0.719 6.167-29.199 0.595-59.051-15.689-84.058-16.285-25.007-41.333-42.176-70.531-48.343a112.534 112.534 0 0 0-23.207-2.436c-52.419 0-98.342 37.285-109.193 88.656-0.059 0.279-0.112 0.553-0.165 0.827l-0.086 0.441c-0.031 0.159-0.07 0.316-0.117 0.47L237.069 509.05a4.998 4.998 0 0 1-5.926 3.859l-18.467-3.901a5 5 0 0 1-3.859-5.925l38.391-181.755a4.97 4.97 0 0 1 0.52-1.394c16.49-61.288 72.07-103.98 135.599-103.98 9.749 0 19.57 1.031 29.192 3.063 75.852 16.021 124.527 90.766 108.504 166.617L482.63 567.388a5 5 0 0 1-4.891 3.966z m-11.523-17.579l8.067 4.745 36.957-174.955c14.882-70.457-30.331-139.885-100.787-154.767a131.53 131.53 0 0 0-27.125-2.847c-59.388 0-111.299 40.174-126.238 97.696a4.944 4.944 0 0 1-0.35 0.946l-37.104 175.662 8.683 1.834 35.771-169.345c0.024-0.112 0.051-0.224 0.083-0.333v-0.002c0.064-0.332 0.129-0.664 0.199-0.996 5.802-27.465 21.041-52.247 42.911-69.776 21.568-17.288 48.582-26.808 76.065-26.808 8.44 0 16.943 0.892 25.273 2.651 31.811 6.719 59.102 25.424 76.844 52.67 17.742 27.245 23.813 59.769 17.094 91.581-0.063 0.297-0.13 0.592-0.198 0.887l-0.022 0.098a5.102 5.102 0 0 1-0.06 0.342l-36.063 170.717z" p-id="9683"></path><path d="M152.993 724.025c30.407 44.042 66.401 81.43 95.428 104.805 17.392 14.123 31.844 22.4 41.346 24.408 24.011 5.072 103.963-17.227 176.741-62.465 48.15-30.062 93.702-70.079 116.985-118.458 22.358-46.483 22.342-100.829-6.564-144.555-19.727-30.293-51.071-52.588-89.084-60.618-46.52-9.826-91.79 4.124-124.088 33.354-12.042-27.103-32.749-50.285-59.253-65.813-46.242-25.965-103.51-24.476-147.133 3.93-44.121 28.302-66.114 77.997-63.963 129.657 1.834 53.16 27.311 108.181 59.585 155.755z" fill="#F44444" p-id="9684"></path><path d="M279.509 855.06h-0.005c-3.521-0.001-6.606-0.275-9.169-0.817-10.757-2.272-25.787-11.062-43.465-25.417-33.362-26.866-68.501-65.45-96.391-105.847-26.448-38.985-58.385-98.084-60.468-158.423-2.323-55.813 22.447-105.933 66.262-134.038 23.294-15.169 50.658-23.196 79.104-23.196 25.601 0 50.905 6.61 73.176 19.115 25.168 14.745 45.716 36.612 58.511 62.089 26.135-21.583 58.79-33.396 92.682-33.396 10.236 0 20.577 1.088 30.733 3.233 38.4 8.112 71.159 30.408 92.241 62.782 28.542 43.175 31.12 99.055 6.88 149.45-26.348 54.746-79.169 95.763-118.843 120.532-64.384 40.02-137.626 63.933-171.248 63.933z m-64.132-437.739c-26.504 0-51.981 7.467-73.676 21.595-40.818 26.183-63.872 73.002-61.697 125.259 2.002 57.992 33.042 115.293 58.728 153.156 26.94 39.02 62.248 77.806 94.427 103.718 15.998 12.991 30.296 21.52 39.244 23.41 1.885 0.397 4.275 0.6 7.104 0.601 31.519 0.002 103.934-23.862 165.964-62.42 38.543-24.064 89.811-63.794 115.119-116.38 22.7-47.192 20.372-99.391-6.229-139.63-19.644-30.164-50.16-50.923-85.947-58.483a138.998 138.998 0 0 0-28.666-3.017c-33.632 0-65.961 12.496-91.033 35.186l-5.12 4.634-2.804-6.311c-11.624-26.163-31.942-48.724-57.211-63.529-20.702-11.622-44.313-17.789-68.203-17.789z" p-id="9685"></path><path d="M122.823 624.161a5.002 5.002 0 0 1-4.812-3.652 223.72 223.72 0 0 1-3.661-15.007l-0.02-0.099c-2.2-10.667-3.492-21.186-3.839-31.269-0.7-16.821 1.33-33.294 6.036-48.925a5 5 0 1 1 9.575 2.882c-4.383 14.56-6.273 29.922-5.618 45.662 0.331 9.586 1.562 19.574 3.66 29.722l0.019 0.097c0.966 4.66 2.136 9.45 3.477 14.238a5 5 0 0 1-4.817 6.351z m15.596-128.432a5 5 0 0 1-4.118-7.829 127.666 127.666 0 0 1 13.707-16.74 5.002 5.002 0 0 1 7.169 6.973c-4.611 4.74-8.86 9.93-12.629 15.424a5 5 0 0 1-4.129 2.172z m34.755-33.688a5 5 0 0 1-2.734-9.19c22.61-14.724 49.137-21.958 76.72-20.918a5 5 0 0 1 4.809 5.185 5.006 5.006 0 0 1-5.185 4.808c-25.509-0.961-50.017 5.715-70.886 19.305a4.992 4.992 0 0 1-2.724 0.81z" fill="#FFFFFF" p-id="9686"></path><path d="M352.956 614.273c2.715-12.855-5.338-25.443-17.988-28.115s-25.107 5.583-27.822 18.438c-1.45 6.863 0.172 13.649 3.922 18.892l-27.011 94.159 44.295 9.357 12.62-96.612c5.921-3.21 10.469-8.947 11.984-16.119z" fill="#F4DD50" p-id="9687"></path><path d="M328.352 732.004c-0.345 0-0.691-0.035-1.033-0.108l-44.295-9.356a4.998 4.998 0 0 1-3.773-6.27l26.383-91.972a29.064 29.064 0 0 1-3.38-20.734c2.803-13.272 14.548-22.906 27.926-22.906 1.946 0 3.904 0.205 5.821 0.61 15.327 3.236 25.127 18.507 21.847 34.04-1.578 7.47-5.979 13.944-12.229 18.115l-12.309 94.229a5.003 5.003 0 0 1-2.067 3.433 5.005 5.005 0 0 1-2.891 0.919z m-38.008-18.139l33.751 7.129 11.919-91.25a5.002 5.002 0 0 1 2.575-3.748c4.866-2.639 8.319-7.288 9.475-12.756 2.141-10.138-4.197-20.092-14.129-22.189a18.185 18.185 0 0 0-3.755-0.395c-8.68 0-16.309 6.297-18.142 14.973-1.101 5.211 0.028 10.66 3.097 14.95a5 5 0 0 1 0.739 4.288l-25.53 88.998z" p-id="9688"></path><path d="M602.935 790.117c48.475 22.683 98.415 36.801 135.27 42.337 22.142 3.418 38.795 3.273 48.012 0.212 23.289-7.736 81.067-67.328 121.077-143.107 26.404-50.25 45.542-107.783 41.233-161.299-4.149-51.413-31.585-98.326-78.604-121.494-32.317-16.201-70.627-19.635-107.498-7.388-45.122 14.988-77.169 49.873-90.306 91.406-24.072-17.324-53.646-26.891-84.364-26.925-53.025 0.914-101.718 31.095-125.049 77.629-23.813 46.697-17.728 100.699 10.195 144.217 28.408 44.973 78.165 79.622 130.034 104.412z" fill="#F4DD50" p-id="9689"></path><path d="M749.339 845.918h-0.002c-8.584 0-18.591-0.873-29.741-2.595-42.358-6.361-92.164-21.944-136.627-42.75-42.505-20.314-99.897-55.225-132.142-106.27-30.167-47.015-34.07-102.786-10.422-149.158 11.842-23.62 30.246-43.652 53.207-57.9 22.929-14.228 49.282-21.994 76.21-22.458 29.166 0.031 57.939 8.543 81.841 24.083 15.372-42.039 48.338-74.026 91.339-88.31 15.207-5.051 30.912-7.612 46.677-7.612 22.352 0 44.703 5.282 64.638 15.275 46.428 22.876 76.85 69.821 81.347 125.561 4.877 60.555-20.033 122.622-41.79 164.028-18.286 34.634-42.251 69.453-67.485 98.051-22.452 25.445-43.552 43.192-56.441 47.475-5.153 1.712-12.087 2.58-20.609 2.58zM569.902 474.787c-50.847 0.877-98.21 30.266-120.574 74.871-22.03 43.201-18.311 95.256 9.934 139.275 30.991 49.06 86.701 82.87 127.982 102.6 42.947 20.097 93.002 35.769 133.856 41.904 10.668 1.646 20.162 2.48 28.236 2.48h0.003c7.344 0 13.379-0.716 17.454-2.069 21.729-7.218 78.591-65.616 118.231-140.696 21.137-40.226 45.354-100.397 40.671-158.563-4.212-52.197-32.56-96.089-75.83-117.41-18.582-9.315-39.384-14.23-60.188-14.23-14.692 0-29.336 2.389-43.524 7.102-42.059 13.971-73.811 46.107-87.114 88.169l-2.083 6.584-5.605-4.034c-23.237-16.723-52.163-25.951-81.449-25.983z" p-id="9690"></path><path d="M523.979 719.801a4.987 4.987 0 0 1-3.475-1.405 223.484 223.484 0 0 1-10.73-11.107l-0.002-0.003c-7.307-8.118-13.753-16.574-19.159-25.134-9.093-14.172-15.652-29.418-19.475-45.287a5 5 0 1 1 9.722-2.342c3.561 14.781 9.681 28.999 18.188 42.259 5.122 8.108 11.221 16.107 18.147 23.804l0.01 0.011a213.297 213.297 0 0 0 10.251 10.61 5 5 0 0 1-3.477 8.594z m-51.33-118.756a5.001 5.001 0 0 1-4.993-5.363c0.524-7.211 1.664-14.4 3.388-21.368a5.003 5.003 0 0 1 6.055-3.652 4.999 4.999 0 0 1 3.652 6.055 117.755 117.755 0 0 0-3.122 19.69 4.997 4.997 0 0 1-4.98 4.638z m12.993-46.615a5 5 0 0 1-4.466-7.242c12.091-24.118 31.346-43.749 55.683-56.769a5 5 0 1 1 4.717 8.818c-22.505 12.04-40.3 30.171-51.46 52.434a5.002 5.002 0 0 1-4.474 2.759z" fill="#FFFFFF" p-id="9691"></path><path d="M720.202 594.468c-4.142-12.469-17.446-19.273-29.716-15.197s-18.86 17.488-14.718 29.957c2.211 6.657 7.035 11.698 12.919 14.332l24.188 94.923 42.964-14.271-37.85-89.78c3.492-5.76 4.524-13.008 2.213-19.964z" fill="#F44444" p-id="9692"></path><path d="M709.355 724.921L684.403 627c-6.276-3.501-11.086-9.288-13.381-16.195-2.419-7.284-1.899-15.064 1.462-21.907 3.376-6.871 9.21-11.975 16.426-14.371a28.056 28.056 0 0 1 8.854-1.438c12.323 0 23.247 7.958 27.183 19.803 2.406 7.246 1.874 15.057-1.417 21.813l39.017 92.548-53.192 17.668z m-11.59-141.832c-1.932 0-3.85 0.313-5.702 0.928-4.653 1.545-8.418 4.845-10.603 9.29-2.197 4.474-2.534 9.568-0.947 14.346 1.679 5.054 5.402 9.188 10.217 11.344l2.205 0.987 23.46 92.063 32.736-10.874-36.74-87.149 1.323-2.184c2.87-4.733 3.505-10.49 1.743-15.795-2.574-7.749-9.685-12.956-17.692-12.956z" p-id="9693"></path><path d="M503.23 445.674l41.169 123.943 17.912-5.949-51.35-154.594z" fill="#F44444" p-id="9694"></path><path d="M544.398 574.618a5 5 0 0 1-4.744-3.425L498.485 447.25a5.006 5.006 0 0 1-0.147-2.609l7.731-36.6a5 5 0 0 1 9.637-0.543l51.35 154.594a5.001 5.001 0 0 1-3.169 6.321l-17.911 5.949a4.996 4.996 0 0 1-1.578 0.256z m-35.996-129.235l39.166 117.913 8.421-2.797-43.953-132.324-3.634 17.208z" p-id="9695"></path><path d="M745.2 313.841c-23.607-71.069-100.357-109.546-171.426-85.939-69.056 22.938-107.332 96.05-87.79 165.373l-0.144 0.048 5.753 17.319 9.016-40.129c-6.544-53.979 25.516-106.896 79.114-124.699 61.177-20.321 127.244 12.8 147.565 73.977 0.143 0.43 0.274 0.862 0.411 1.293l0.016-0.005 56.136 169.002 19.907 0.056L745.2 313.841z" fill="#F44444" p-id="9696"></path><path d="M803.758 495.137h-0.014l-19.907-0.056a4.999 4.999 0 0 1-4.731-3.424L723.098 323.04a4.794 4.794 0 0 1-0.161-0.435l-0.158-0.5a39.877 39.877 0 0 0-0.236-0.742c-15.205-45.775-57.807-76.532-106.008-76.532-11.938 0-23.793 1.927-35.235 5.728-50.239 16.688-82.087 66.883-75.726 119.353 0.068 0.566 0.04 1.141-0.085 1.698l-9.016 40.129a4.999 4.999 0 0 1-9.623 0.48l-5.753-17.319a5.002 5.002 0 0 1-0.255-1.464c-9.4-34.49-5.368-70.867 11.395-102.578 17.011-32.18 45.409-56.223 79.964-67.701 14.393-4.781 29.311-7.205 44.34-7.205 60.659 0 114.271 38.706 133.407 96.313l58.558 176.296a5.002 5.002 0 0 1-0.694 4.508 5.013 5.013 0 0 1-4.054 2.068z m-16.296-10.046l9.36 0.026-56.367-169.701c-17.775-53.512-67.574-89.465-123.917-89.465-13.956 0-27.813 2.253-41.188 6.695-66.298 22.022-103.431 91.839-84.622 159.031l4.814-21.429c-6.477-56.857 28.145-111.091 82.603-129.181 12.461-4.139 25.376-6.237 38.388-6.237 52.517 0 98.932 33.509 115.499 83.383 0.1 0.302 0.194 0.601 0.288 0.9l0.024 0.078c0.041 0.102 0.079 0.205 0.114 0.31l55.004 165.59z" p-id="9697"></path></svg>